<svg width="28" height="39" viewBox="0 0 28 39" fill="none" xmlns="http://www.w3.org/2000/svg">
<g clip-path="url(#clip0_318_731)">
<path d="M27.7966 7.66443L25.2795 35.8632L13.9647 39L2.68101 35.8676L0.166504 7.66443H27.7966Z" fill="#264DE4"/>
<path d="M23.1244 34.0676L25.2754 9.97043H13.9814V36.6023L23.1244 34.0676Z" fill="#2965F1"/>
<path d="M5.93115 20.4306L6.24117 23.8896H13.9818V20.4306H5.93115Z" fill="#EBEBEB"/>
<path d="M13.9816 13.4295H13.9697H5.30811L5.62254 16.8885H13.9816V13.4295Z" fill="#EBEBEB"/>
<path d="M13.9815 33.0128V29.414L13.9664 29.4181L10.1141 28.3779L9.8678 25.6191H7.99588H6.39551L6.88011 31.0503L13.9656 33.0173L13.9815 33.0128Z" fill="#EBEBEB"/>
<path d="M6.66895 0H10.8584V1.75195H8.4209V3.50391H10.8584V5.25586H6.66895V0Z" fill="black"/>
<path d="M11.6963 0H15.8857V1.52344H13.4482V1.82812H15.8857V5.33203H11.6963V3.73242H14.1338V3.42773H11.6963V0Z" fill="black"/>
<path d="M16.7236 0H20.9131V1.52344H18.4756V1.82812H20.9131V5.33203H16.7236V3.73242H19.1611V3.42773H16.7236V0Z" fill="black"/>
<path d="M18.2291 23.8895L17.8276 28.3756L13.9697 29.4169V33.0155L21.0609 31.0502L21.1129 30.4658L21.9257 21.3594L22.0101 20.4306L22.6346 13.4295H13.9697V16.8885H18.8438L18.5291 20.4306H13.9697V23.8895H18.2291Z" fill="white"/>
</g>
<defs>
<clipPath id="clip0_318_731">
<rect width="27.6301" height="39" fill="white" transform="translate(0.166504)"/>
</clipPath>
</defs>
</svg>
