<svg width="40" height="35" viewBox="0 0 40 35" fill="none" xmlns="http://www.w3.org/2000/svg">
<g clip-path="url(#clip0_318_749)">
<path d="M19.9226 20.8062C21.8406 20.8062 23.3954 19.2513 23.3954 17.3333C23.3954 15.4153 21.8406 13.8605 19.9226 13.8605C18.0046 13.8605 16.4497 15.4153 16.4497 17.3333C16.4497 19.2513 18.0046 20.8062 19.9226 20.8062Z" fill="#61DAFB"/>
<path fill-rule="evenodd" clip-rule="evenodd" d="M3.31995 15.1926C2.4817 15.9493 2.13499 16.6741 2.13499 17.3333C2.13499 17.9926 2.4817 18.7174 3.31995 19.4741C4.15812 20.2307 5.41853 20.951 7.04811 21.5732C10.3014 22.8153 14.8531 23.6014 19.9228 23.6014C24.9925 23.6014 29.5441 22.8153 32.7974 21.5732C34.427 20.951 35.6874 20.2307 36.5256 19.4741C37.3639 18.7174 37.7106 17.9926 37.7106 17.3333C37.7106 16.6741 37.3639 15.9493 36.5256 15.1926C35.6874 14.4359 34.427 13.7157 32.7974 13.0935C29.5441 11.8513 24.9925 11.0653 19.9228 11.0653C14.8531 11.0653 10.3014 11.8513 7.04811 13.0935C5.41853 13.7157 4.15812 14.4359 3.31995 15.1926ZM6.44383 11.5109C9.93498 10.1779 14.7007 9.37119 19.9228 9.37119C25.1448 9.37119 29.9106 10.1779 33.4017 11.5109C35.1444 12.1763 36.613 12.9892 37.6608 13.9351C38.7085 14.8808 39.4046 16.0278 39.4046 17.3333C39.4046 18.6389 38.7085 19.7858 37.6608 20.7316C36.613 21.6775 35.1444 22.4904 33.4017 23.1558C29.9106 24.4888 25.1448 25.2955 19.9228 25.2955C14.7007 25.2955 9.93498 24.4888 6.44383 23.1558C4.70117 22.4904 3.23257 21.6775 2.18479 20.7316C1.1371 19.7858 0.440918 18.6389 0.440918 17.3333C0.440918 16.0278 1.1371 14.8808 2.18479 13.9351C3.23257 12.9892 4.70117 12.1763 6.44383 11.5109Z" fill="#61DAFB"/>
<path fill-rule="evenodd" clip-rule="evenodd" d="M13.4752 1.88447C12.4007 1.53688 11.5997 1.59905 11.0288 1.92866C10.4579 2.25826 10.0035 2.92094 9.76727 4.02525C9.5311 5.12944 9.53757 6.5811 9.81352 8.30345C10.3644 11.742 11.9595 16.0769 14.4943 20.4674C17.0292 24.8579 19.9858 28.4067 22.6882 30.603C24.0418 31.7032 25.2958 32.4346 26.3701 32.7822C27.4446 33.1298 28.2456 33.0676 28.8165 32.738C29.3874 32.4084 29.8418 31.7457 30.078 30.6414C30.3142 29.5372 30.3077 28.0856 30.0318 26.3632C29.4809 22.9246 27.8858 18.5898 25.351 14.1993C22.8161 9.80881 19.8595 6.26 17.1571 4.06363C15.8035 2.96347 14.5496 2.23203 13.4752 1.88447ZM18.2256 2.74899C21.1256 5.10592 24.2071 8.82984 26.8181 13.3523C29.4291 17.8747 31.1134 22.4053 31.7045 26.0952C31.9996 27.9371 32.0299 29.6154 31.7346 30.9957C31.4394 32.376 30.7942 33.5523 29.6636 34.2051C28.5329 34.8579 27.1916 34.8285 25.8487 34.394C24.5056 33.9595 23.0673 33.0942 21.6197 31.9177C18.7198 29.5607 15.6382 25.8368 13.0272 21.3144C10.4162 16.792 8.73195 12.2614 8.14078 8.57145C7.84568 6.72957 7.81543 5.05125 8.11067 3.67092C8.40589 2.29071 9.05107 1.11433 10.1817 0.461545C11.3124 -0.191241 12.6537 -0.161794 13.9966 0.272647C15.3397 0.707125 16.778 1.57249 18.2256 2.74899Z" fill="#61DAFB"/>
<path fill-rule="evenodd" clip-rule="evenodd" d="M30.0781 4.02526C29.8419 2.92095 29.3875 2.25827 28.8166 1.92866C28.2457 1.59906 27.4446 1.53688 26.3702 1.88448C25.2958 2.23204 24.0419 2.96348 22.6883 4.06363C19.9858 6.26001 17.0293 9.80882 14.4944 14.1993C11.9596 18.5898 10.3645 22.9247 9.81359 26.3632C9.53765 28.0856 9.53117 29.5372 9.76735 30.6414C10.0035 31.7457 10.4579 32.4084 11.0288 32.738C11.5997 33.0676 12.4008 33.1298 13.4753 32.7822C14.5496 32.4346 15.8036 31.7032 17.1572 30.603C19.8596 28.4067 22.8162 24.8579 25.351 20.4674C27.8859 16.0769 29.481 11.742 30.0319 8.30346C30.3078 6.5811 30.3143 5.12945 30.0781 4.02526ZM31.7046 8.57146C31.1134 12.2614 29.4292 16.792 26.8182 21.3144C24.2071 25.8368 21.1256 29.5608 18.2257 31.9177C16.7781 33.0942 15.3397 33.9595 13.9967 34.394C12.6538 34.8285 11.3125 34.8579 10.1818 34.2051C9.05114 33.5523 8.40596 32.376 8.11074 30.9958C7.8155 29.6154 7.84576 27.9371 8.14085 26.0952C8.73203 22.4053 10.4163 17.8747 13.0273 13.3523C15.6383 8.82985 18.7198 5.10592 21.6198 2.74899C23.0674 1.57249 24.5057 0.707132 25.8487 0.272653C27.1916 -0.161787 28.533 -0.191234 29.6637 0.461551C30.7943 1.11434 31.4395 2.29071 31.7347 3.67092C32.03 5.05125 31.9997 6.72958 31.7046 8.57146Z" fill="#61DAFB"/>
</g>
<defs>
<clipPath id="clip0_318_749">
<rect width="38.9637" height="34.6667" fill="white" transform="translate(0.440918)"/>
</clipPath>
</defs>
</svg>
