<svg width="48" height="35" viewBox="0 0 48 35" fill="none" xmlns="http://www.w3.org/2000/svg">
<g clip-path="url(#clip0_318_729)">
<path d="M40.5966 19.9252C38.984 19.9336 37.5825 20.322 36.4089 20.8961C35.9783 20.0434 35.5477 19.2835 35.4718 18.7263C35.3873 18.0762 35.286 17.6794 35.3873 16.9026C35.4886 16.1259 35.9446 15.0198 35.9361 14.9354C35.9277 14.851 35.8348 14.4542 34.9061 14.4457C33.9774 14.4373 33.1753 14.623 33.0824 14.8679C32.9895 15.1127 32.8122 15.67 32.694 16.2441C32.5336 17.0884 30.8366 20.1025 29.8657 21.6813C29.5533 21.065 29.2831 20.5246 29.224 20.094C29.1396 19.4439 29.0382 19.0471 29.1396 18.2704C29.2409 17.4936 29.6968 16.3876 29.6884 16.3032C29.6799 16.2187 29.587 15.8219 28.6583 15.8135C27.7296 15.805 26.9275 15.9908 26.8346 16.2356C26.7418 16.4805 26.6405 17.0546 26.4463 17.6118C26.2521 18.1691 23.9978 23.201 23.4068 24.5013C23.1029 25.1682 22.8411 25.7002 22.6554 26.0632C22.6554 26.0632 22.6469 26.0885 22.6216 26.1307C22.4612 26.4431 22.3683 26.612 22.3683 26.612C22.3683 26.612 22.3683 26.612 22.3683 26.6204C22.2417 26.8484 22.1066 27.0595 22.0391 27.0595C21.9884 27.0595 21.8955 26.4516 22.0559 25.6242C22.3937 23.8765 23.1957 21.1579 23.1873 21.065C23.1873 21.0143 23.3393 20.5415 22.6638 20.2967C22.0053 20.0518 21.7689 20.4571 21.7098 20.4571C21.6507 20.4571 21.6085 20.6006 21.6085 20.6006C21.6085 20.6006 22.343 17.5443 20.2069 17.5443C18.873 17.5443 17.0324 19.0049 16.1206 20.322C15.5464 20.6344 14.3222 21.3014 13.0136 22.019C12.5154 22.2976 12.0004 22.5763 11.5192 22.838C11.4854 22.8042 11.4516 22.762 11.4179 22.7282C8.83432 19.9674 4.05562 18.0171 4.25825 14.3106C4.33423 12.9598 4.79859 9.41374 13.4357 5.10785C20.5447 1.60403 26.2014 2.57497 27.1808 4.72792C28.5823 7.80114 24.1498 13.5086 16.8044 14.336C14.0014 14.6484 12.5323 13.5677 12.1608 13.1624C11.7725 12.7403 11.7134 12.7149 11.5698 12.7994C11.3334 12.926 11.4854 13.3059 11.5698 13.5254C11.7893 14.0996 12.6927 15.1127 14.2209 15.6109C15.5718 16.0499 18.8561 16.2947 22.8327 14.7581C27.2821 13.0358 30.7606 8.24862 29.739 4.23823C28.7174 0.168736 21.9631 -1.17369 15.5718 1.09746C11.7725 2.44833 7.65231 4.57594 4.68884 7.34522C1.16814 10.638 0.610903 13.5001 0.838862 14.699C1.65783 18.9543 7.52566 21.7235 9.8728 23.7752C9.7546 23.8427 9.64484 23.9018 9.55197 23.9525C8.3784 24.535 3.90365 26.8737 2.78918 29.3475C1.52274 32.1505 2.99181 34.16 3.96275 34.4301C6.97687 35.266 10.0754 33.7631 11.7387 31.2809C13.4019 28.7987 13.1993 25.5735 12.431 24.096C12.4226 24.0791 12.4141 24.0622 12.3972 24.0453C12.7012 23.868 13.0136 23.6823 13.3175 23.505C13.917 23.1504 14.508 22.8211 15.0145 22.5509C14.7275 23.3361 14.5164 24.2733 14.4151 25.6242C14.2884 27.2114 14.9386 29.2715 15.7913 30.082C16.1712 30.4366 16.6187 30.4451 16.9058 30.4451C17.902 30.4451 18.3495 29.6177 18.8476 28.6383C19.4555 27.4394 20.0043 26.0463 20.0043 26.0463C20.0043 26.0463 19.3204 29.8119 21.1779 29.8119C21.8533 29.8119 22.5372 28.9338 22.8411 28.4863C22.8411 28.4948 22.8411 28.4948 22.8411 28.4948C22.8411 28.4948 22.858 28.4694 22.8918 28.4103C22.9593 28.3006 23.0016 28.233 23.0016 28.233C23.0016 28.233 23.0016 28.2246 23.0016 28.2161C23.2717 27.7433 23.8796 26.6711 24.783 24.8896C25.9481 22.5932 27.071 19.7226 27.071 19.7226C27.071 19.7226 27.1724 20.4233 27.5185 21.5884C27.7211 22.2723 28.1433 23.0237 28.481 23.7498C28.2108 24.1298 28.042 24.3408 28.042 24.3408C28.042 24.3408 28.042 24.3408 28.0504 24.3493C27.8309 24.6363 27.5945 24.9487 27.3328 25.2527C26.4125 26.3503 25.3149 27.6083 25.1629 27.9713C24.9856 28.4019 25.0279 28.7143 25.3656 28.9676C25.6104 29.1533 26.0494 29.1786 26.4969 29.1533C27.3243 29.0942 27.9069 28.8916 28.194 28.7649C28.6414 28.6045 29.1649 28.3597 29.6546 27.9966C30.558 27.3296 31.1068 26.3756 31.0561 25.1176C31.0308 24.4253 30.8028 23.7329 30.5242 23.0828C30.6086 22.9646 30.6846 22.8464 30.769 22.7282C32.1959 20.6428 33.3019 18.3548 33.3019 18.3548C33.3019 18.3548 33.4032 19.0556 33.7494 20.2207C33.9183 20.8117 34.2644 21.4534 34.5684 22.0781C33.2259 23.1673 32.3985 24.4337 32.103 25.2611C31.5711 26.7977 31.9848 27.4901 32.77 27.6505C33.1246 27.7265 33.6312 27.5576 34.0027 27.3972C34.4755 27.2452 35.0327 26.9835 35.5646 26.5951C36.468 25.9281 37.3376 24.9994 37.287 23.7414C37.2617 23.1673 37.1097 22.6016 36.8986 22.0528C38.0384 21.58 39.5075 21.3183 41.3818 21.5378C45.4006 22.0106 46.1943 24.5181 46.0423 25.5735C45.8903 26.6289 45.046 27.203 44.7674 27.3803C44.4888 27.5576 44.3959 27.6167 44.4213 27.7433C44.455 27.9291 44.5901 27.9206 44.8265 27.8869C45.1558 27.8278 46.9373 27.0341 47.0132 25.0923C47.1399 22.61 44.7759 19.8999 40.5966 19.9252ZM9.59418 30.3775C8.2602 31.8297 6.40275 32.3785 5.60067 31.9141C4.7395 31.416 5.07721 29.2715 6.71514 27.7349C7.71141 26.7977 8.99473 25.9281 9.84747 25.3962C10.0417 25.278 10.3287 25.1091 10.6749 24.8981C10.734 24.8643 10.7677 24.8474 10.7677 24.8474C10.8353 24.8052 10.9028 24.763 10.9704 24.7208C11.5698 26.9159 10.9957 28.8494 9.59418 30.3775ZM19.3035 23.7752C18.8392 24.9065 17.8682 27.8024 17.2772 27.642C16.7707 27.5069 16.4583 25.3118 17.1759 23.1419C17.539 22.0528 18.3073 20.7526 18.7548 20.246C19.4808 19.4355 20.2829 19.1653 20.4771 19.4946C20.722 19.9252 19.5906 23.066 19.3035 23.7752ZM27.3159 27.6083C27.1217 27.7096 26.936 27.7771 26.8515 27.7265C26.7924 27.6927 26.936 27.5576 26.936 27.5576C26.936 27.5576 27.9407 26.4769 28.3375 25.9872C28.5654 25.7002 28.8356 25.3624 29.1227 24.9825C29.1227 25.0163 29.1227 25.0585 29.1227 25.0923C29.1227 26.384 27.8731 27.2536 27.3159 27.6083ZM33.4961 26.1983C33.3526 26.097 33.3779 25.7593 33.8592 24.7039C34.0449 24.2902 34.4839 23.5979 35.2354 22.9309C35.3198 23.201 35.3789 23.4628 35.3704 23.7076C35.362 25.3371 34.1969 25.945 33.4961 26.1983Z" fill="#CD6799"/>
</g>
<defs>
<clipPath id="clip0_318_729">
<rect width="46.2504" height="34.6667" fill="white" transform="translate(0.796875)"/>
</clipPath>
</defs>
</svg>
