<svg width="57" height="35" viewBox="0 0 57 35" fill="none" xmlns="http://www.w3.org/2000/svg">
<g clip-path="url(#clip0_318_758)">
<mask id="mask0_318_758" style="mask-type:luminance" maskUnits="userSpaceOnUse" x="0" y="0" width="57" height="35">
<path d="M0.0473633 0H56.7746V34.0364H0.0473633V0Z" fill="white"/>
</mask>
<g mask="url(#mask0_318_758)">
<path fill-rule="evenodd" clip-rule="evenodd" d="M28.411 0C20.8474 0 16.1201 3.78182 14.2292 11.3455C17.0655 7.56364 20.3746 6.14545 24.1565 7.09091C26.3142 7.62982 27.8563 9.19612 29.5634 10.9284C32.3441 13.7511 35.5628 17.0182 42.5928 17.0182C50.1565 17.0182 54.8837 13.2364 56.7746 5.67273C53.9383 9.45455 50.6292 10.8727 46.8474 9.92727C44.6896 9.38836 43.1475 7.82206 41.4404 6.08978C38.6597 3.26707 35.441 0 28.411 0ZM14.2292 17.0182C6.66555 17.0182 1.93827 20.8 0.0473633 28.3636C2.88373 24.5818 6.19282 23.1636 9.97464 24.1091C12.1324 24.6491 13.6745 26.2143 15.3816 27.9466C18.1623 30.7693 21.381 34.0364 28.411 34.0364C35.9746 34.0364 40.7019 30.2545 42.5928 22.6909C39.7565 26.4727 36.4474 27.8909 32.6655 26.9455C30.5078 26.4065 28.9657 24.8402 27.2586 23.108C24.4779 20.2853 21.2592 17.0182 14.2292 17.0182Z" fill="#38BDF8"/>
</g>
</g>

</svg>
