<svg width="40" height="39" viewBox="0 0 40 39" fill="none" xmlns="http://www.w3.org/2000/svg">
<path d="M33.4466 7.64508L30.9358 35.7726L19.6496 38.9015L8.39444 35.7769L5.88623 7.64508H33.4466Z" fill="#E44D26"/>
<path d="M19.6665 36.5098L28.7863 33.9815L30.9319 9.94522H19.6665V36.5098Z" fill="#F16529"/>
<path d="M14.7853 16.8458H19.6663V13.3956H11.0146L11.0972 14.3212L11.9452 23.8292H19.6663V20.3789H15.1007L14.7853 16.8458ZM15.563 25.5544H12.0994L12.5828 30.9718L19.6504 32.9337L19.6663 32.9294V29.3397L19.6512 29.3437L15.8086 28.3061L15.563 25.5544Z" fill="#EBEBEB"/>
<path d="M8.45068 0H10.2041V1.73231H11.808V0H13.5615V5.24588H11.8081V3.48926H10.2042V5.24588H8.45079L8.45068 0ZM15.8672 1.73966H14.3238V0H19.1652V1.73966H17.6209V5.24588H15.8675V1.73966H15.8672ZM19.9335 0H21.7618L22.8864 1.84326L24.01 0H25.839V5.24588H24.0927V2.64573L22.8864 4.51093H22.8562L21.6491 2.64573V5.24588H19.9335V0ZM26.7115 0H28.4655V3.51194H30.9312V5.24588H26.7114V0H26.7115Z" fill="black"/>
<path d="M19.6544 23.8292H23.903L23.5024 28.3039L19.6543 29.3426V32.9321L26.7276 30.9718L26.7794 30.3889L27.5903 21.3054L27.6745 20.3789H19.6544V23.8292ZM19.6544 16.8374V16.8458H27.9884L28.0576 16.0704L28.2149 14.3212L28.2973 13.3956H19.6544V16.8374Z" fill="white"/>
</svg>
