<svg width="36" height="35" viewBox="0 0 36 35" fill="none" xmlns="http://www.w3.org/2000/svg">
<g clip-path="url(#clip0_318_755)">
<path d="M35.4411 0H0.774414V34.6667H35.4411V0Z" fill="#F7DF1E"/>
<path d="M24.0618 27.0835C24.76 28.2236 25.6685 29.0617 27.2753 29.0617C28.6251 29.0617 29.4874 28.387 29.4874 27.4549C29.4874 26.3379 28.6014 25.9422 27.1157 25.2924L26.3013 24.9429C23.9506 23.9415 22.3889 22.6868 22.3889 20.0346C22.3889 17.5914 24.2505 15.7315 27.1597 15.7315C29.2309 15.7315 30.72 16.4524 31.793 18.3398L29.2562 19.9685C28.6977 18.9671 28.0952 18.5725 27.1597 18.5725C26.2056 18.5725 25.6008 19.1778 25.6008 19.9685C25.6008 20.9458 26.2061 21.3415 27.6038 21.9467L28.4182 22.2956C31.186 23.4825 32.7488 24.6926 32.7488 27.4131C32.7488 30.346 30.4448 31.9528 27.3507 31.9528C24.3253 31.9528 22.3708 30.5111 21.4144 28.6215L24.0618 27.0835ZM12.5541 27.3658C13.0658 28.2737 13.5313 29.0413 14.6506 29.0413C15.7208 29.0413 16.396 28.6226 16.396 26.9943V15.9175H19.6536V27.0383C19.6536 30.4115 17.6759 31.9467 14.7892 31.9467C12.181 31.9467 10.6705 30.5969 9.90234 28.9711L12.5541 27.3658Z" fill="black"/>
</g>
<defs>
<clipPath id="clip0_318_755">
<rect width="34.6667" height="34.6667" fill="white" transform="translate(0.774414)"/>
</clipPath>
</defs>
</svg>
